<svg xmlns="http://www.w3.org/2000/svg" width="288" height="288" viewBox="0 0 288 288"><path class="logo" d="M195.211 87.809a55.156 55.156 0 0 0-1.504-3.522 55.704 55.704 0 0 0-2.255-4.268 56.744 56.744 0 0 0-1.795-2.884 54.94 54.94 0 0 0-2.964-4.006 54.772 54.772 0 0 0-2.032-2.386c-10.41-11.463-25.23-18.038-40.662-18.038-30.287 0-54.929 24.642-54.929 54.932 0 30.286 24.642 54.927 54.929 54.927 30.289 0 54.931-24.641 54.931-54.927a54.552 54.552 0 0 0-3.719-19.828zm-5.095-5.158l.22.412a53.238 53.238 0 0 1 2.16 4.581l.039.093-.042.092-22.649 49.141-.047-.943a24.856 24.856 0 0 0-1.287-6.803l-.03-.088.04-.086 21.596-46.399zm-4.665-7.122l.233.305a51.357 51.357 0 0 1 2.9 4.195l.064.106-.052.111-21.362 45.894-.217-.415a25.123 25.123 0 0 0-2.612-4.01l-.09-.112.06-.129 21.076-45.945zm-43.257 13.282c.91.226 1.815.34 2.692.34 6.139 0 11.133-4.993 11.133-11.133 0-6.143-4.994-11.139-11.133-11.139-6.142 0-11.137 4.996-11.137 11.139 0 2.27.69 4.465 1.997 6.347l.152.22-.007.003 6.196 8.999-.569-.121c-7.198-1.52-12.421-7.965-12.421-15.323 0-8.639 7.025-15.664 15.659-15.664 8.64 0 15.668 7.025 15.668 15.664 0 8.501-6.663 15.37-15.17 15.64l-.126.003-3.531-5.123.597.148zm-6.053-10.793c0-4.821 3.923-8.744 8.746-8.744 4.82 0 8.741 3.923 8.741 8.744 0 4.819-3.921 8.741-8.741 8.741-4.824 0-8.746-3.922-8.746-8.741zm1.588 16.754a17.909 17.909 0 0 0 6.015 1.374l.114.006 2.989 4.343-.604.042c-.442.031-.898.063-1.356.063a22.17 22.17 0 0 1-3.812-.348l-.098-.017-3.983-5.774.735.311zm10.51 7.965l.142-.018.082.117 8.751 12.703-.829-.434a24.852 24.852 0 0 0-6.69-2.354l-.094-.019-.053-.077-6.747-9.778.838.054c1.396.103 2.81.051 4.6-.194zm-8.669-.332l6.862 9.946-.466-.018-.42-.026c-1.214-.079-2.472.015-4.061.231l-.142.019-.082-.117-8.83-12.777.84.443a24.756 24.756 0 0 0 6.208 2.279l.091.02zm3.915 12.331c.192-.015.388-.019.582-.026.158-.008.313-.021.474-.023a21.505 21.505 0 0 1 3.579.24l.101.013 4.187 6.072-.728-.305a18.031 18.031 0 0 0-5.502-1.312l-.11-.006-.063-.092-3.122-4.52.602-.041zm4.414 7.298l.596.147a15.816 15.816 0 0 1 8.293 5.177l1.356 1.967-2.429 5.291-.177-.588a11.002 11.002 0 0 0-1.567-3.188l-.135-.19.012-.007-5.949-8.609zm5.729 15.218c0 4.82-3.921 8.744-8.741 8.744-4.823 0-8.746-3.923-8.746-8.744s3.923-8.743 8.746-8.743c4.82 0 8.741 3.923 8.741 8.743zm-8.853-15.533l3.375 4.883-.596-.146a11.096 11.096 0 0 0-2.668-.337c-6.142 0-11.137 4.994-11.137 11.134s4.995 11.134 11.137 11.134c4.303 0 8.264-2.535 10.089-6.458l.095-.203.012.004 4.429-9.654.182.575c.488 1.543.733 3.136.733 4.729 0 8.638-7.028 15.664-15.668 15.664-8.634 0-15.659-7.025-15.659-15.664 0-8.574 6.977-15.601 15.553-15.658l.123-.003zm14.55 5.028l-.234-.306c-.057-.071-.111-.147-.165-.223-.072-.1-.146-.2-.223-.294l-7.04-10.201.674.235a22.71 22.71 0 0 1 9.059 5.933l.106.115-2.177 4.741zm3.864-2.694l.232.333a22.566 22.566 0 0 1 2.438 4.538l.037.094-3.151 6.772-.104-.789a17.867 17.867 0 0 0-1.759-5.705l-.05-.101 2.357-5.142zm-3.047-66.331c9.088 2.948 17.225 8.355 23.526 15.636l.097.112-.062.136-20.976 45.722-11.787-17.108.32-.085c10.951-2.898 18.599-12.816 18.599-24.117 0-7.853-3.619-15.104-9.931-19.89l-1.093-.829 1.307.423zm-15.255-2.289c12.452 0 22.583 10.132 22.583 22.585 0 10.563-7.496 19.844-17.825 22.065l-.152.032-2.781-4.038.378-.05c8.966-1.16 15.728-8.851 15.728-17.886 0-9.956-8.101-18.057-18.059-18.057-9.953 0-18.05 8.101-18.05 18.057 0 3.556 1.042 7.003 3.014 9.966l.11.165-.009.008 7.627 11.05-.705-.271c-8.639-3.354-14.444-11.809-14.444-21.041-.001-12.453 10.131-22.585 22.585-22.585zm-14.065 102.989c-23.132-6.008-39.286-26.891-39.286-50.785 0-23.896 16.153-44.778 39.282-50.785l1.321-.344-1.133.762c-6.947 4.662-11.095 12.417-11.095 20.748 0 5.428 1.744 10.609 5.043 14.984l.146.189-.033.023 13.718 19.846-.317.083c-10.926 2.915-18.556 12.827-18.556 24.108 0 8.33 4.149 16.087 11.099 20.75l1.133.762-1.322-.341zm-8.521-21.17c0-10.545 7.48-19.822 17.787-22.059l.152-.033 2.929 4.236-.388.042a18.021 18.021 0 0 0-16.073 17.94c0 9.955 8.097 18.054 18.05 18.054 7.428 0 14.012-4.475 16.771-11.398l.091-.227.024.01 5.3-11.389.132.714a22.34 22.34 0 0 1 .394 4.108 22.34 22.34 0 0 1-1.679 8.507l-.67 1.459c-3.854 7.785-11.606 12.617-20.234 12.617-12.454.003-22.586-10.128-22.586-22.581zm37.861 20.289l-1.299.42 1.086-.826a25.402 25.402 0 0 0 7.011-8.23l.096-.18.003.002.376-.809c.19-.396.381-.793.551-1.199l25.729-55.829.183.563a52.179 52.179 0 0 1 2.566 16.184c-.001 22.802-14.589 42.855-36.302 49.904z"/></svg>