<svg xmlns="http://www.w3.org/2000/svg" width="288" height="119" viewBox="0 0 288 119"><path d="M41.358 38.843c.06-.115.471-.059.471.061-.147 1.877-.207 3.605-.088 5.775 0 .119-.441.176-.499.031-.793-1.877-1.466-2.963-2.229-3.697-.909-.908-1.995-1.465-3.696-1.465-1.525 0-2.433.439-3.079 1.084a2.927 2.927 0 0 0-.851 2.082c0 1.76 1.262 2.348 4.488 3.197 3.371.852 4.839 1.613 5.746 2.521.792.793 1.202 1.73 1.202 3.227 0 3.227-2.784 5.631-6.45 5.631-3.226 0-5.074-1.642-5.602-1.642-.323 0-.967.644-1.406 1.438-.09.115-.471.026-.471-.062.06-2.054.06-3.726-.204-6.423 0-.146.409-.204.468-.088 1.056 2.377 1.818 3.547 2.668 4.398 1.058 1.086 2.671 1.73 4.517 1.73 1.438 0 2.464-.383 3.079-.971.558-.555.851-1.229.851-2.142 0-1.698-1.172-2.551-4.633-3.431-3.079-.762-4.604-1.467-5.514-2.375-.792-.791-1.144-1.674-1.144-3.194 0-2.963 2.552-5.573 6.422-5.573 3.139 0 4.547 1.379 4.811 1.379.205.005.763-.786 1.143-1.491zm13.038.263c3.577 0 5.806.678 7.096 1.965.646.646.998 1.469.998 2.523 0 1.291-.527 2.229-1.318 3.049-1.438 1.408-4.018 2.406-7.099 2.406-1.143 0-1.582-.09-1.729-.09-.088 0-.116.029-.116.117v3.842c0 2.904.028 3.139.116 3.256.088.088.294.115 3.109.146.088 0 .116.588 0 .588-.909 0-3.169.025-5.046.025-1.846 0-3.255.029-4.809.09-.088 0-.088-.588 0-.588 2.084-.115 2.436-.115 2.523-.203.116-.119.145-.646.176-4.604v-7.83c0-2.113-.031-3.842-.147-3.959-.088-.088-.468-.117-2.345-.117-.119 0-.119-.588 0-.588 1.729.002 5.424-.028 8.591-.028zm-2.141 2.668v5.574c0 .791 0 .908.06.967.059.061.234.117 1.437.117 2.022 0 3.46-.588 4.018-1.729.323-.646.468-1.406.468-2.934 0-1.086-.116-1.996-.468-2.67-.499-1.023-1.378-1.436-3.519-1.436-1.584 0-1.819.029-1.907.117s-.089.324-.089 1.994zm21.104-2.668c.058 0 .058.588-.03.588-1.583 0-1.877 0-1.993.117-.147.146-.205.586-.264 3.312 0 1.729-.029 4.342-.029 5.777 0 1.699.029 3.373.029 4.957.028 1.848.116 2.197.204 2.314.118.088.439.146 2.347.176.117 0 .117.561.029.586-1.759-.025-3.051-.025-4.633-.025-1.642 0-3.079.025-4.517.057-.088 0-.088-.557.028-.557 1.82-.061 2.288-.088 2.404-.207.119-.115.147-.906.147-2.197.028-2.17.028-3.402.028-5.162 0-1.553 0-4.105-.028-6.07 0-1.936-.088-2.812-.235-2.961-.116-.088-.907-.117-2.197-.146-.06 0-.088-.586.028-.586 3.109.057 5.633 0 8.682.027zm7.81 0c1.086 0 3.666-.025 5.044-.025 3.021 0 5.338.645 6.628 1.965.587.555.91 1.35.91 2.314 0 2.785-3.051 4.457-6.072 4.811v.088c3.021.646 4.487 1.553 5.104 4.369.615 2.758.881 3.312 1.612 3.312.616 0 1.202-.729 1.761-2.315.058-.115.556.147.527.235-.791 2.287-1.848 3.313-3.754 3.313-1.173 0-2.081-.295-2.727-.938-.792-.821-1.262-1.877-1.789-4.604-.587-2.642-1.202-3.108-2.756-3.108h-2.229c-.119 0-.176.028-.176.116 0 2.316-.031 5.836-.031 6.539 0 .763.031.938.088 1.025.088.088.352.118 2.611.207.088 0 .088.588 0 .588a183.307 183.307 0 0 0-9.327-.031c-.088 0-.088-.588.031-.588 1.993-.058 2.345-.088 2.433-.176.088-.089.147-.468.147-1.259 0-4.312.059-6.601.059-7.627 0-2.813-.03-5.808-.03-6.272 0-.969-.058-1.146-.146-1.231-.088-.088-.294-.117-2.494-.146-.116 0-.116-.586.031-.586 2.288.024 3.402.024 4.545.024zm2.084 1.731v5.807c0 .91 0 1.086.057 1.201.088.061.528.088 1.673.088 2.288 0 3.459-.379 4.018-1.494.322-.615.439-1.465.439-2.963 0-1.082-.147-1.877-.439-2.492-.439-.879-1.35-1.289-3.49-1.289-1.965 0-2.141 0-2.2.061-.058.056-.058.231-.058 1.081zm24.272-1.731c.058 0 .058.588-.03.588-1.583 0-1.877 0-1.994.117-.146.146-.204.586-.264 3.312 0 1.729-.028 4.342-.028 5.777 0 1.699.028 3.373.028 4.957.029 1.848.117 2.197.205 2.314.118.088.439.146 2.347.176.116 0 .116.561.028.586-1.76-.025-3.05-.025-4.633-.025-1.642 0-3.078.025-4.516.057-.088 0-.088-.557.028-.557 1.819-.061 2.288-.088 2.404-.207.119-.115.147-.906.147-2.197.028-2.17.028-3.402.028-5.162 0-1.553 0-4.105-.028-6.07 0-1.936-.088-2.812-.235-2.961-.116-.088-.907-.117-2.197-.146-.06 0-.088-.586.028-.586 3.108.057 5.631 0 8.682.027zm3.5.206c.028-.117.119-.23.323-.23 1.525.025 5.806.088 8.505.113 2.903 0 5.775-.059 7.828-.146.264-.029.382.031.382.176.06 2.054.088 4.076.029 6.744 0 .119-.439.119-.469.031-.821-2.492-1.788-4.898-2.551-5.66-.411-.438-.938-.615-2.523-.615-.527 0-.763 0-.819.061-.06.059-.06.321-.119 3.489a757.015 757.015 0 0 0-.088 11.377c0 1.086.06 1.351.176 1.466.147.146.352.176 2.963.323.06.026.06.56-.06.56-3.606-.148-6.861-.119-10.263 0-.088 0-.117-.56 0-.56 2.375-.117 2.844-.177 2.932-.265.088-.088.294-.791.323-2.875.028-3.666.059-7.244.059-11.201 0-1.877-.03-2.258-.088-2.314-.059-.061-.264-.089-1.29-.089-1.232 0-1.644.205-2.141.703-.909.879-1.995 3.254-2.874 5.776-.028.088-.439.088-.439-.028.144-2.729.175-5.047.204-6.836zm30.777 15.044c-1.438-1.438-2.464-3.373-2.464-6.305 0-2.26.938-4.428 2.699-6.217 1.788-1.789 4.104-3.02 7.447-3.02a9.464 9.464 0 0 1 6.772 2.844c1.438 1.438 2.348 3.604 2.348 5.922 0 2.699-1.146 5.074-2.99 6.922-1.438 1.436-3.873 2.785-6.921 2.785-2.757.001-5.25-1.288-6.891-2.931zm2.053-5.66c0 3.051.323 4.604.879 5.719.793 1.555 2.315 2.229 4.047 2.229 2.022 0 3.46-.82 4.282-2.465.614-1.201 1.056-3.227 1.056-6.217 0-3.52-.323-5.396-.938-6.602-.613-1.229-1.846-1.965-4.075-1.965-2.199 0-3.606 1.117-4.281 2.406-.647 1.296-.97 3.229-.97 6.895zm24.112-9.59c4.104 0 5.19.029 8.388-.025.146 0 .205.057.205.203-.029 1.787-.06 3.959-.176 6.131 0 .113-.471.113-.499 0-.851-2.787-1.493-4.078-2.2-4.752-.729-.732-1.259-.996-3.343-.996-1.905 0-2.403.027-2.696.059-.06.234-.088.938-.088 2.67 0 .969-.029 3.459 0 4.984.116.025.293.061 1.379.061 1.289 0 2.021-.146 2.344-.498.385-.354.615-.939.998-3.053 0-.115.527-.115.527.027-.06 1.086-.146 2.67-.146 3.785 0 1.229.088 2.668.088 3.723 0 .119-.47.119-.498.031-.354-1.762-.673-2.582-1.026-2.936-.32-.32-.938-.438-2.373-.438-.56 0-1.113 0-1.289.027-.031 1.73 0 5.248.026 6.6.029 1.086.088 1.379.176 1.467.117.115.353.146 2.991.203.088 0 .088.561 0 .561h-4.811c-1.789 0-3.752 0-5.162.027-.114 0-.088-.557-.026-.557 2.142-.061 2.521-.09 2.606-.178.089-.088.178-.498.178-1.611 0-2.316.029-4.369.029-7.01 0-1.73-.029-4.049-.06-5.688 0-1.613 0-1.965-.116-2.082-.089-.088-.353-.146-2.436-.205-.088 0-.088-.557 0-.557.999 0 5.221.027 7.01.027zm27.259-.027c.088 0 .088.557 0 .557-1.643.088-1.847.146-1.935.234-.118.117-.06.381.176.822a261.917 261.917 0 0 0 4.369 7.418h.028c1.35-2.082 2.521-3.9 3.49-5.541.469-.822.731-1.471.731-1.996 0-.646-.322-.852-2.111-.998-.088 0-.06-.527.028-.527.998.059 2.464.088 3.229.088.731 0 1.377 0 2.846-.029.088 0 .088.529.027.529-.852.059-1.32.146-1.613.293-.674.322-1.643 1.555-2.551 2.992-.676 1.082-1.816 2.814-3.459 5.395-.234.381-.295.586-.295 1.174-.027 1.555-.061 2.729-.061 3.869.029 2.143.088 2.611.264 2.787.119.117.385.176 2.76.293.058 0 .058.586 0 .586a125.64 125.64 0 0 0-5.043-.088c-1.731 0-3.402.029-4.957.029-.088 0-.088-.588-.029-.588 2.435-.057 2.728-.088 2.874-.232.146-.119.204-.438.204-1.289.031-2.26.06-3.93.06-4.869 0-.557-.028-.703-.292-1.113-1.789-3.021-2.552-4.312-4.341-7.154-.705-1.086-.97-1.438-1.173-1.643-.264-.266-.471-.322-1.938-.383-.088 0-.057-.559.031-.559 2.61.031 5.338.031 8.681-.057zm13.944 15.277c-1.437-1.438-2.463-3.373-2.463-6.305 0-2.26.938-4.428 2.698-6.217 1.789-1.789 4.104-3.02 7.447-3.02a9.463 9.463 0 0 1 6.772 2.844c1.438 1.438 2.347 3.604 2.347 5.922 0 2.699-1.145 5.074-2.99 6.922-1.438 1.436-3.871 2.785-6.92 2.785-2.756.001-5.248-1.288-6.891-2.931zm2.053-5.66c0 3.051.323 4.604.88 5.719.793 1.555 2.315 2.229 4.049 2.229 2.021 0 3.459-.82 4.28-2.465.615-1.201 1.056-3.227 1.056-6.217 0-3.52-.322-5.396-.938-6.602-.613-1.229-1.847-1.965-4.077-1.965-2.196 0-3.604 1.117-4.278 2.406-.649 1.296-.972 3.229-.972 6.895zm21.563-9.59c1.085 0 3.665-.025 5.043-.025 3.021 0 5.338.645 6.629 1.965.586.555.908 1.35.908 2.314 0 2.785-3.049 4.457-6.071 4.811v.088c3.022.646 4.487 1.553 5.104 4.369.613 2.758.881 3.312 1.611 3.312.615 0 1.202-.729 1.762-2.315.058-.115.557.147.525.235-.791 2.287-1.85 3.313-3.753 3.313-1.174 0-2.082-.295-2.729-.938-.791-.821-1.262-1.877-1.789-4.604-.586-2.642-1.2-3.108-2.756-3.108h-2.229c-.118 0-.176.028-.176.116 0 2.316-.03 5.836-.03 6.539 0 .763.03.938.088 1.025.088.088.353.118 2.61.207.088 0 .088.588 0 .588a183.314 183.314 0 0 0-9.327-.031c-.088 0-.088-.588.03-.588 1.994-.058 2.346-.088 2.434-.176.088-.089.146-.468.146-1.259 0-4.312.06-6.601.06-7.627 0-2.813-.03-5.808-.03-6.272 0-.969-.058-1.146-.146-1.231-.089-.088-.294-.117-2.494-.146-.116 0-.116-.586.03-.586 2.292.024 3.408.024 4.55.024zm2.083 1.731v5.807c0 .91 0 1.086.058 1.201.088.061.527.088 1.672.088 2.288 0 3.459-.379 4.018-1.494.324-.615.439-1.465.439-2.963 0-1.082-.146-1.877-.439-2.492-.438-.879-1.35-1.289-3.488-1.289-1.965 0-2.143 0-2.199.061-.061.056-.061.231-.061 1.081zm19.711-1.701c1.29 0 3.518-.029 4.575-.029.088 0 .115.561 0 .561-1.762.027-2.053.088-2.143.176-.088.088-.146.498-.146 2.961-.027 2.316-.061 3.873-.061 6.129l.061.029a204.379 204.379 0 0 0 5.981-6.275c.968-1.055 1.38-1.76 1.38-2.346 0-.469-.324-.615-2.521-.73-.09 0-.061-.527.027-.527 1.904.027 5.424.027 7.684.027.117 0 .088.559 0 .559-1.496.059-1.993.205-2.521.469-.674.352-1.496.967-2.757 2.199a72.171 72.171 0 0 0-2.903 2.992c1.763 3.049 3.402 5.922 5.428 9.178.438.705.763 1.172 1.025 1.436.353.354.558.412 2.142.473.088 0 .114.557-.03.557-1.583-.027-3.284-.027-4.484-.057-1.468 0-2.668.025-4.104.025-.06 0-.06-.559.028-.559 1.408-.057 1.554-.088 1.642-.176s.088-.379-.265-1.025c-1.262-2.258-2.668-4.809-4.045-7.096-.561.557-1.203 1.145-1.762 1.701-.027 1.699 0 3.285 0 4.604.03 1.025.061 1.789.146 1.877s.381.088 1.849.115c.089 0 .089.588.028.588-1.496-.029-3.021-.029-4.691-.029h-3.93c-.088 0-.088-.559 0-.559 1.905-.027 2.287-.057 2.375-.145.088-.119.176-.764.176-1.701.029-2.58.059-4.812.088-7.594 0-1.908-.029-3.08-.029-5.342-.027-1.348-.088-1.67-.203-1.758-.088-.088-.411-.146-2.288-.176-.089 0-.089-.561 0-.561 1.345-.001 3.25.029 4.248.029zM71.325 79.966V68.097h4.201c3.23 0 5.776 2.143 5.776 5.961 0 3.799-2.578 5.908-5.792 5.908h-4.185zm4.118-1.842c2.059 0 3.766-1.32 3.766-4.066 0-2.779-1.691-4.117-3.75-4.117h-2.126v8.186l2.11-.003zm10.758 1.842V68.097h2.042v11.869h-2.042zm13.636-8.52c-.116-.738-.735-1.826-2.326-1.826-1.206 0-2.042.805-2.042 1.707 0 .756.468 1.324 1.39 1.521l1.707.354c2.092.42 3.214 1.742 3.214 3.414 0 1.842-1.49 3.602-4.201 3.602-3.014 0-4.403-1.943-4.588-3.65l1.875-.533c.118 1.236 1.006 2.377 2.713 2.377 1.423 0 2.159-.723 2.159-1.643 0-.77-.568-1.389-1.591-1.605l-1.675-.354c-1.807-.367-3.011-1.557-3.011-3.33 0-1.992 1.823-3.633 4.033-3.633 2.795 0 3.883 1.707 4.15 3.029l-1.807.57zm11.554-1.457v9.977h-2.008v-9.977h-3.852v-1.895h9.726v1.895h-3.866zm8.196 9.977V68.097h2.042v11.869h-2.042zm7.593 0V68.097h2.008v9.961h5.44v1.908h-7.448zm11.874 0V68.097h2.008v9.961h5.44v1.908h-7.448zm11.872 0V68.097h7.332v1.875h-5.323v3.146h4.82v1.826h-4.82v3.146h5.323v1.875l-7.332.001zm15.973-4.686h-1.472v4.686h-2.026V68.097h4.555c2.294 0 3.717 1.592 3.717 3.6 0 1.689-1.021 2.98-2.678 3.383l2.678 4.889h-2.277l-2.497-4.689zm.687-1.775c1.239 0 2.043-.719 2.043-1.809 0-1.104-.804-1.824-2.043-1.824h-2.158v3.633h2.158zm7.392-5.408h2.377l2.844 4.973 2.863-4.973h2.262l-4.187 6.848v5.021h-2.01v-5.021l-4.149-6.848zm20.396 5.943c0-3.867 2.896-6.193 5.977-6.193 3.014 0 4.805 1.773 5.34 3.85l-1.894.637c-.351-1.439-1.455-2.596-3.446-2.596-1.959 0-3.916 1.426-3.916 4.305 0 2.777 1.906 4.252 3.933 4.252 1.991 0 3.132-1.271 3.532-2.611l1.84.604c-.533 2.008-2.342 3.934-5.372 3.934-3.199-.004-5.994-2.315-5.994-6.182zm23.908 1.84c0 2.512-1.791 4.338-4.236 4.338-2.427 0-4.218-1.826-4.218-4.338 0-2.494 1.791-4.316 4.218-4.316 2.445-.001 4.236 1.822 4.236 4.316zm-1.959 0c0-1.689-1.071-2.559-2.277-2.559-1.188 0-2.275.869-2.275 2.559 0 1.691 1.088 2.596 2.275 2.596 1.206 0 2.277-.887 2.277-2.596zm7.535 1.459c.752 0 1.373.619 1.373 1.371s-.621 1.355-1.373 1.355c-.754 0-1.354-.604-1.354-1.355s.602-1.371 1.354-1.371z" fill="#BE835C"/></svg>