<?xml version="1.0" encoding="utf-8"?>
<!-- Generator: Adobe Illustrator 16.0.0, SVG Export Plug-In . SVG Version: 6.00 Build 0)  -->
<!DOCTYPE svg PUBLIC "-//W3C//DTD SVG 1.1//EN" "http://www.w3.org/Graphics/SVG/1.1/DTD/svg11.dtd">
<svg version="1.1" id="Layer_1" xmlns="http://www.w3.org/2000/svg" xmlns:xlink="http://www.w3.org/1999/xlink" x="0px" y="0px"
	 width="288px" height="119px" viewBox="0 0 288 119" enable-background="new 0 0 288 119" xml:space="preserve">
<g>
	<g>
		<path fill="#BE835C" d="M41.358,38.843c0.06-0.115,0.471-0.059,0.471,0.061c-0.147,1.877-0.207,3.605-0.088,5.775
			c0,0.119-0.441,0.176-0.499,0.031c-0.793-1.877-1.466-2.963-2.229-3.697c-0.909-0.908-1.995-1.465-3.696-1.465
			c-1.525,0-2.433,0.439-3.079,1.084c-0.527,0.527-0.851,1.262-0.851,2.082c0,1.76,1.262,2.348,4.488,3.197
			c3.371,0.852,4.839,1.613,5.746,2.521c0.792,0.793,1.202,1.73,1.202,3.227c0,3.227-2.784,5.631-6.45,5.631
			c-3.226,0-5.074-1.642-5.602-1.642c-0.323,0-0.967,0.644-1.406,1.438c-0.09,0.115-0.471,0.026-0.471-0.062
			c0.06-2.054,0.06-3.726-0.204-6.423c0-0.146,0.409-0.204,0.468-0.088c1.056,2.377,1.818,3.547,2.668,4.398
			c1.058,1.086,2.671,1.73,4.517,1.73c1.438,0,2.464-0.383,3.079-0.971c0.558-0.555,0.851-1.229,0.851-2.142
			c0-1.698-1.172-2.551-4.633-3.431c-3.079-0.762-4.604-1.467-5.514-2.375c-0.792-0.791-1.144-1.674-1.144-3.194
			c0-2.963,2.552-5.573,6.422-5.573c3.139,0,4.547,1.379,4.811,1.379C40.42,40.339,40.978,39.548,41.358,38.843z"/>
		<path fill="#BE835C" d="M54.396,39.106c3.577,0,5.806,0.678,7.096,1.965c0.646,0.646,0.998,1.469,0.998,2.523
			c0,1.291-0.527,2.229-1.318,3.049c-1.438,1.408-4.018,2.406-7.099,2.406c-1.143,0-1.582-0.09-1.729-0.09
			c-0.088,0-0.116,0.029-0.116,0.117v3.842c0,2.904,0.028,3.139,0.116,3.256c0.088,0.088,0.294,0.115,3.109,0.146
			c0.088,0,0.116,0.588,0,0.588c-0.909,0-3.169,0.025-5.046,0.025c-1.846,0-3.255,0.029-4.809,0.09c-0.088,0-0.088-0.588,0-0.588
			c2.084-0.115,2.436-0.115,2.523-0.203c0.116-0.119,0.145-0.646,0.176-4.604v-7.83c0-2.113-0.031-3.842-0.147-3.959
			c-0.088-0.088-0.468-0.117-2.345-0.117c-0.119,0-0.119-0.588,0-0.588C47.534,39.136,51.229,39.106,54.396,39.106z M52.255,41.774
			v5.574c0,0.791,0,0.908,0.06,0.967c0.059,0.061,0.234,0.117,1.437,0.117c2.022,0,3.46-0.588,4.018-1.729
			c0.323-0.646,0.468-1.406,0.468-2.934c0-1.086-0.116-1.996-0.468-2.67c-0.499-1.023-1.378-1.436-3.519-1.436
			c-1.584,0-1.819,0.029-1.907,0.117S52.255,40.104,52.255,41.774z"/>
		<path fill="#BE835C" d="M73.359,39.106c0.058,0,0.058,0.588-0.03,0.588c-1.583,0-1.877,0-1.993,0.117
			c-0.147,0.146-0.205,0.586-0.264,3.312c0,1.729-0.029,4.342-0.029,5.777c0,1.699,0.029,3.373,0.029,4.957
			c0.028,1.848,0.116,2.197,0.204,2.314c0.118,0.088,0.439,0.146,2.347,0.176c0.117,0,0.117,0.561,0.029,0.586
			c-1.759-0.025-3.051-0.025-4.633-0.025c-1.642,0-3.079,0.025-4.517,0.057c-0.088,0-0.088-0.557,0.028-0.557
			c1.82-0.061,2.288-0.088,2.404-0.207c0.119-0.115,0.147-0.906,0.147-2.197c0.028-2.17,0.028-3.402,0.028-5.162
			c0-1.553,0-4.105-0.028-6.07c0-1.936-0.088-2.812-0.235-2.961c-0.116-0.088-0.907-0.117-2.197-0.146
			c-0.06,0-0.088-0.586,0.028-0.586C67.786,39.136,70.31,39.079,73.359,39.106z"/>
		<path fill="#BE835C" d="M81.169,39.106c1.086,0,3.666-0.025,5.044-0.025c3.021,0,5.338,0.645,6.628,1.965
			c0.587,0.555,0.91,1.35,0.91,2.314c0,2.785-3.051,4.457-6.072,4.811v0.088c3.021,0.646,4.487,1.553,5.104,4.369
			c0.615,2.758,0.881,3.312,1.612,3.312c0.616,0,1.202-0.729,1.761-2.315c0.058-0.115,0.556,0.147,0.527,0.235
			c-0.791,2.287-1.848,3.313-3.754,3.313c-1.173,0-2.081-0.295-2.727-0.938c-0.792-0.821-1.262-1.877-1.789-4.604
			c-0.587-2.642-1.202-3.108-2.756-3.108h-2.229c-0.119,0-0.176,0.028-0.176,0.116c0,2.316-0.031,5.836-0.031,6.539
			c0,0.763,0.031,0.938,0.088,1.025c0.088,0.088,0.352,0.118,2.611,0.207c0.088,0,0.088,0.588,0,0.588
			c-1.789-0.062-5.895-0.119-9.327-0.031c-0.088,0-0.088-0.588,0.031-0.588c1.993-0.058,2.345-0.088,2.433-0.176
			c0.088-0.089,0.147-0.468,0.147-1.259c0-4.312,0.059-6.601,0.059-7.627c0-2.813-0.03-5.808-0.03-6.272
			c0-0.969-0.058-1.146-0.146-1.231c-0.088-0.088-0.294-0.117-2.494-0.146c-0.116,0-0.116-0.586,0.031-0.586
			C78.912,39.106,80.026,39.106,81.169,39.106z M83.253,40.837v5.807c0,0.91,0,1.086,0.057,1.201
			c0.088,0.061,0.528,0.088,1.673,0.088c2.288,0,3.459-0.379,4.018-1.494c0.322-0.615,0.439-1.465,0.439-2.963
			c0-1.082-0.147-1.877-0.439-2.492c-0.439-0.879-1.35-1.289-3.49-1.289c-1.965,0-2.141,0-2.2,0.061
			C83.253,39.812,83.253,39.987,83.253,40.837z"/>
		<path fill="#BE835C" d="M107.525,39.106c0.058,0,0.058,0.588-0.03,0.588c-1.583,0-1.877,0-1.994,0.117
			c-0.146,0.146-0.204,0.586-0.264,3.312c0,1.729-0.028,4.342-0.028,5.777c0,1.699,0.028,3.373,0.028,4.957
			c0.029,1.848,0.117,2.197,0.205,2.314c0.118,0.088,0.439,0.146,2.347,0.176c0.116,0,0.116,0.561,0.028,0.586
			c-1.76-0.025-3.05-0.025-4.633-0.025c-1.642,0-3.078,0.025-4.516,0.057c-0.088,0-0.088-0.557,0.028-0.557
			c1.819-0.061,2.288-0.088,2.404-0.207c0.119-0.115,0.147-0.906,0.147-2.197c0.028-2.17,0.028-3.402,0.028-5.162
			c0-1.553,0-4.105-0.028-6.07c0-1.936-0.088-2.812-0.235-2.961c-0.116-0.088-0.907-0.117-2.197-0.146
			c-0.06,0-0.088-0.586,0.028-0.586C101.951,39.136,104.474,39.079,107.525,39.106z"/>
		<path fill="#BE835C" d="M111.025,39.312c0.028-0.117,0.119-0.23,0.323-0.23c1.525,0.025,5.806,0.088,8.505,0.113
			c2.903,0,5.775-0.059,7.828-0.146c0.264-0.029,0.382,0.031,0.382,0.176c0.06,2.054,0.088,4.076,0.029,6.744
			c0,0.119-0.439,0.119-0.469,0.031c-0.821-2.492-1.788-4.898-2.551-5.66c-0.411-0.438-0.938-0.615-2.523-0.615
			c-0.527,0-0.763,0-0.819,0.061c-0.06,0.059-0.06,0.321-0.119,3.489c-0.057,3.459-0.088,7.918-0.088,11.377
			c0,1.086,0.06,1.351,0.176,1.466c0.147,0.146,0.352,0.176,2.963,0.323c0.06,0.026,0.06,0.56-0.06,0.56
			c-3.606-0.148-6.861-0.119-10.263,0c-0.088,0-0.117-0.56,0-0.56c2.375-0.117,2.844-0.177,2.932-0.265
			c0.088-0.088,0.294-0.791,0.323-2.875c0.028-3.666,0.059-7.244,0.059-11.201c0-1.877-0.03-2.258-0.088-2.314
			c-0.059-0.061-0.264-0.089-1.29-0.089c-1.232,0-1.644,0.205-2.141,0.703c-0.909,0.879-1.995,3.254-2.874,5.776
			c-0.028,0.088-0.439,0.088-0.439-0.028C110.965,43.419,110.996,41.101,111.025,39.312z"/>
		<path fill="#BE835C" d="M141.802,54.356c-1.438-1.438-2.464-3.373-2.464-6.305c0-2.26,0.938-4.428,2.699-6.217
			c1.788-1.789,4.104-3.02,7.447-3.02c2.902,0,5.247,1.287,6.772,2.844c1.438,1.438,2.348,3.604,2.348,5.922
			c0,2.699-1.146,5.074-2.99,6.922c-1.438,1.436-3.873,2.785-6.921,2.785C145.936,57.288,143.443,55.999,141.802,54.356z
			 M143.855,48.696c0,3.051,0.323,4.604,0.879,5.719c0.793,1.555,2.315,2.229,4.047,2.229c2.022,0,3.46-0.82,4.282-2.465
			c0.614-1.201,1.056-3.227,1.056-6.217c0-3.52-0.323-5.396-0.938-6.602c-0.613-1.229-1.846-1.965-4.075-1.965
			c-2.199,0-3.606,1.117-4.281,2.406C144.178,43.097,143.855,45.03,143.855,48.696z"/>
		<path fill="#BE835C" d="M167.967,39.106c4.104,0,5.19,0.029,8.388-0.025c0.146,0,0.205,0.057,0.205,0.203
			c-0.029,1.787-0.06,3.959-0.176,6.131c0,0.113-0.471,0.113-0.499,0c-0.851-2.787-1.493-4.078-2.2-4.752
			c-0.729-0.732-1.259-0.996-3.343-0.996c-1.905,0-2.403,0.027-2.696,0.059c-0.06,0.234-0.088,0.938-0.088,2.67
			c0,0.969-0.029,3.459,0,4.984c0.116,0.025,0.293,0.061,1.379,0.061c1.289,0,2.021-0.146,2.344-0.498
			c0.385-0.354,0.615-0.939,0.998-3.053c0-0.115,0.527-0.115,0.527,0.027c-0.06,1.086-0.146,2.67-0.146,3.785
			c0,1.229,0.088,2.668,0.088,3.723c0,0.119-0.47,0.119-0.498,0.031c-0.354-1.762-0.673-2.582-1.026-2.936
			c-0.32-0.32-0.938-0.438-2.373-0.438c-0.56,0-1.113,0-1.289,0.027c-0.031,1.73,0,5.248,0.026,6.6
			c0.029,1.086,0.088,1.379,0.176,1.467c0.117,0.115,0.353,0.146,2.991,0.203c0.088,0,0.088,0.561,0,0.561h-4.811
			c-1.789,0-3.752,0-5.162,0.027c-0.114,0-0.088-0.557-0.026-0.557c2.142-0.061,2.521-0.09,2.606-0.178
			c0.089-0.088,0.178-0.498,0.178-1.611c0-2.316,0.029-4.369,0.029-7.01c0-1.73-0.029-4.049-0.06-5.688c0-1.613,0-1.965-0.116-2.082
			c-0.089-0.088-0.353-0.146-2.436-0.205c-0.088,0-0.088-0.557,0-0.557C161.956,39.079,166.178,39.106,167.967,39.106z"/>
		<path fill="#BE835C" d="M195.226,39.079c0.088,0,0.088,0.557,0,0.557c-1.643,0.088-1.847,0.146-1.935,0.234
			c-0.118,0.117-0.06,0.381,0.176,0.822c1.406,2.49,2.903,5.012,4.369,7.418h0.028c1.35-2.082,2.521-3.9,3.49-5.541
			c0.469-0.822,0.731-1.471,0.731-1.996c0-0.646-0.322-0.852-2.111-0.998c-0.088,0-0.06-0.527,0.028-0.527
			c0.998,0.059,2.464,0.088,3.229,0.088c0.731,0,1.377,0,2.846-0.029c0.088,0,0.088,0.529,0.027,0.529
			c-0.852,0.059-1.32,0.146-1.613,0.293c-0.674,0.322-1.643,1.555-2.551,2.992c-0.676,1.082-1.816,2.814-3.459,5.395
			c-0.234,0.381-0.295,0.586-0.295,1.174c-0.027,1.555-0.061,2.729-0.061,3.869c0.029,2.143,0.088,2.611,0.264,2.787
			c0.119,0.117,0.385,0.176,2.76,0.293c0.058,0,0.058,0.586,0,0.586c-1.32-0.059-3.254-0.088-5.043-0.088
			c-1.731,0-3.402,0.029-4.957,0.029c-0.088,0-0.088-0.588-0.029-0.588c2.435-0.057,2.728-0.088,2.874-0.232
			c0.146-0.119,0.204-0.438,0.204-1.289c0.031-2.26,0.06-3.93,0.06-4.869c0-0.557-0.028-0.703-0.292-1.113
			c-1.789-3.021-2.552-4.312-4.341-7.154c-0.705-1.086-0.97-1.438-1.173-1.643c-0.264-0.266-0.471-0.322-1.938-0.383
			c-0.088,0-0.057-0.559,0.031-0.559C189.155,39.167,191.883,39.167,195.226,39.079z"/>
		<path fill="#BE835C" d="M209.17,54.356c-1.437-1.438-2.463-3.373-2.463-6.305c0-2.26,0.938-4.428,2.698-6.217
			c1.789-1.789,4.104-3.02,7.447-3.02c2.902,0,5.248,1.287,6.772,2.844c1.438,1.438,2.347,3.604,2.347,5.922
			c0,2.699-1.145,5.074-2.99,6.922c-1.438,1.436-3.871,2.785-6.92,2.785C213.305,57.288,210.813,55.999,209.17,54.356z
			 M211.223,48.696c0,3.051,0.323,4.604,0.88,5.719c0.793,1.555,2.315,2.229,4.049,2.229c2.021,0,3.459-0.82,4.28-2.465
			c0.615-1.201,1.056-3.227,1.056-6.217c0-3.52-0.322-5.396-0.938-6.602c-0.613-1.229-1.847-1.965-4.077-1.965
			c-2.196,0-3.604,1.117-4.278,2.406C211.546,43.097,211.223,45.03,211.223,48.696z"/>
		<path fill="#BE835C" d="M232.786,39.106c1.085,0,3.665-0.025,5.043-0.025c3.021,0,5.338,0.645,6.629,1.965
			c0.586,0.555,0.908,1.35,0.908,2.314c0,2.785-3.049,4.457-6.071,4.811v0.088c3.022,0.646,4.487,1.553,5.104,4.369
			c0.613,2.758,0.881,3.312,1.611,3.312c0.615,0,1.202-0.729,1.762-2.315c0.058-0.115,0.557,0.147,0.525,0.235
			c-0.791,2.287-1.85,3.313-3.753,3.313c-1.174,0-2.082-0.295-2.729-0.938c-0.791-0.821-1.262-1.877-1.789-4.604
			c-0.586-2.642-1.2-3.108-2.756-3.108h-2.229c-0.118,0-0.176,0.028-0.176,0.116c0,2.316-0.03,5.836-0.03,6.539
			c0,0.763,0.03,0.938,0.088,1.025c0.088,0.088,0.353,0.118,2.61,0.207c0.088,0,0.088,0.588,0,0.588
			c-1.789-0.062-5.896-0.119-9.327-0.031c-0.088,0-0.088-0.588,0.03-0.588c1.994-0.058,2.346-0.088,2.434-0.176
			c0.088-0.089,0.146-0.468,0.146-1.259c0-4.312,0.06-6.601,0.06-7.627c0-2.813-0.03-5.808-0.03-6.272
			c0-0.969-0.058-1.146-0.146-1.231c-0.089-0.088-0.294-0.117-2.494-0.146c-0.116,0-0.116-0.586,0.03-0.586
			C230.528,39.106,231.644,39.106,232.786,39.106z M234.869,40.837v5.807c0,0.91,0,1.086,0.058,1.201
			c0.088,0.061,0.527,0.088,1.672,0.088c2.288,0,3.459-0.379,4.018-1.494c0.324-0.615,0.439-1.465,0.439-2.963
			c0-1.082-0.146-1.877-0.439-2.492c-0.438-0.879-1.35-1.289-3.488-1.289c-1.965,0-2.143,0-2.199,0.061
			C234.869,39.812,234.869,39.987,234.869,40.837z"/>
		<path fill="#BE835C" d="M254.58,39.136c1.29,0,3.518-0.029,4.575-0.029c0.088,0,0.115,0.561,0,0.561
			c-1.762,0.027-2.053,0.088-2.143,0.176c-0.088,0.088-0.146,0.498-0.146,2.961c-0.027,2.316-0.061,3.873-0.061,6.129l0.061,0.029
			c1.994-1.994,3.959-4.074,5.981-6.275c0.968-1.055,1.38-1.76,1.38-2.346c0-0.469-0.324-0.615-2.521-0.73
			c-0.09,0-0.061-0.527,0.027-0.527c1.904,0.027,5.424,0.027,7.684,0.027c0.117,0,0.088,0.559,0,0.559
			c-1.496,0.059-1.993,0.205-2.521,0.469c-0.674,0.352-1.496,0.967-2.757,2.199c-0.967,0.939-1.877,1.877-2.903,2.992
			c1.763,3.049,3.402,5.922,5.428,9.178c0.438,0.705,0.763,1.172,1.025,1.436c0.353,0.354,0.558,0.412,2.142,0.473
			c0.088,0,0.114,0.557-0.03,0.557c-1.583-0.027-3.284-0.027-4.484-0.057c-1.468,0-2.668,0.025-4.104,0.025
			c-0.06,0-0.06-0.559,0.028-0.559c1.408-0.057,1.554-0.088,1.642-0.176s0.088-0.379-0.265-1.025
			c-1.262-2.258-2.668-4.809-4.045-7.096c-0.561,0.557-1.203,1.145-1.762,1.701c-0.027,1.699,0,3.285,0,4.604
			c0.03,1.025,0.061,1.789,0.146,1.877s0.381,0.088,1.849,0.115c0.089,0,0.089,0.588,0.028,0.588
			c-1.496-0.029-3.021-0.029-4.691-0.029h-3.93c-0.088,0-0.088-0.559,0-0.559c1.905-0.027,2.287-0.057,2.375-0.145
			c0.088-0.119,0.176-0.764,0.176-1.701c0.029-2.58,0.059-4.812,0.088-7.594c0-1.908-0.029-3.08-0.029-5.342
			c-0.027-1.348-0.088-1.67-0.203-1.758c-0.088-0.088-0.411-0.146-2.288-0.176c-0.089,0-0.089-0.561,0-0.561
			C251.677,39.106,253.582,39.136,254.58,39.136z"/>
		<path fill="#BE835C" d="M71.325,79.966V68.097h4.201c3.23,0,5.776,2.143,5.776,5.961c0,3.799-2.578,5.908-5.792,5.908H71.325z
			 M75.443,78.124c2.059,0,3.766-1.32,3.766-4.066c0-2.779-1.691-4.117-3.75-4.117h-2.126v8.186L75.443,78.124L75.443,78.124z"/>
		<path fill="#BE835C" d="M86.201,79.966V68.097h2.042v11.869H86.201z"/>
		<path fill="#BE835C" d="M99.837,71.446c-0.116-0.738-0.735-1.826-2.326-1.826c-1.206,0-2.042,0.805-2.042,1.707
			c0,0.756,0.468,1.324,1.39,1.521l1.707,0.354c2.092,0.42,3.214,1.742,3.214,3.414c0,1.842-1.49,3.602-4.201,3.602
			c-3.014,0-4.403-1.943-4.588-3.65l1.875-0.533c0.118,1.236,1.006,2.377,2.713,2.377c1.423,0,2.159-0.723,2.159-1.643
			c0-0.77-0.568-1.389-1.591-1.605l-1.675-0.354c-1.807-0.367-3.011-1.557-3.011-3.33c0-1.992,1.823-3.633,4.033-3.633
			c2.795,0,3.883,1.707,4.15,3.029L99.837,71.446z"/>
		<path fill="#BE835C" d="M111.391,69.989v9.977h-2.008v-9.977h-3.852v-1.895h9.726v1.895H111.391z"/>
		<path fill="#BE835C" d="M119.587,79.966V68.097h2.042v11.869H119.587z"/>
		<path fill="#BE835C" d="M127.18,79.966V68.097h2.008v9.961h5.44v1.908H127.18z"/>
		<path fill="#BE835C" d="M139.054,79.966V68.097h2.008v9.961h5.44v1.908H139.054z"/>
		<path fill="#BE835C" d="M150.926,79.966V68.097h7.332v1.875h-5.323v3.146h4.82v1.826h-4.82v3.146h5.323v1.875L150.926,79.966
			L150.926,79.966z"/>
		<path fill="#BE835C" d="M166.899,75.28h-1.472v4.686h-2.026V68.097h4.555c2.294,0,3.717,1.592,3.717,3.6
			c0,1.689-1.021,2.98-2.678,3.383l2.678,4.889h-2.277L166.899,75.28z M167.586,73.505c1.239,0,2.043-0.719,2.043-1.809
			c0-1.104-0.804-1.824-2.043-1.824h-2.158v3.633H167.586z"/>
		<path fill="#BE835C" d="M174.978,68.097h2.377l2.844,4.973l2.863-4.973h2.262l-4.187,6.848v5.021h-2.01v-5.021L174.978,68.097z"/>
		<path fill="#BE835C" d="M195.374,74.04c0-3.867,2.896-6.193,5.977-6.193c3.014,0,4.805,1.773,5.34,3.85l-1.894,0.637
			c-0.351-1.439-1.455-2.596-3.446-2.596c-1.959,0-3.916,1.426-3.916,4.305c0,2.777,1.906,4.252,3.933,4.252
			c1.991,0,3.132-1.271,3.532-2.611l1.84,0.604c-0.533,2.008-2.342,3.934-5.372,3.934C198.169,80.218,195.374,77.907,195.374,74.04z
			"/>
		<path fill="#BE835C" d="M219.282,75.88c0,2.512-1.791,4.338-4.236,4.338c-2.427,0-4.218-1.826-4.218-4.338
			c0-2.494,1.791-4.316,4.218-4.316C217.491,71.563,219.282,73.386,219.282,75.88z M217.323,75.88c0-1.689-1.071-2.559-2.277-2.559
			c-1.188,0-2.275,0.869-2.275,2.559c0,1.691,1.088,2.596,2.275,2.596C216.252,78.476,217.323,77.589,217.323,75.88z"/>
		<path fill="#BE835C" d="M224.858,77.339c0.752,0,1.373,0.619,1.373,1.371s-0.621,1.355-1.373,1.355
			c-0.754,0-1.354-0.604-1.354-1.355S224.106,77.339,224.858,77.339z"/>
	</g>
</g>
</svg>
